<svg xmlns="http://www.w3.org/2000/svg" viewBox="0 0 64 64" width="64" height="64" role="img" aria-label="שדכןAI — זוג">
  <defs>
    <linearGradient id="g" x1="0" y1="0" x2="64" y2="64" gradientUnits="userSpaceOnUse">
      <stop offset="0" stop-color="#6366f1"/>
      <stop offset="1" stop-color="#4338ca"/>
    </linearGradient>
  </defs>
  <rect width="64" height="64" rx="14" fill="url(#g)"/>
  <g fill="#ffffff">
    <!-- heart -->
    <path transform="translate(24.8,1.4) scale(0.6)" d="M12,21 C12,21 3,14.6 3,8.6 C3,5.5 5.4,3.1 8.5,3.1 C10.3,3.1 11.5,4.1 12,5.1 C12.5,4.1 13.7,3.1 15.5,3.1 C18.6,3.1 21,5.5 21,8.6 C21,14.6 12,21 12,21 Z"/>
    <!-- left figure -->
    <circle cx="22" cy="31" r="6.4"/>
    <path d="M14,50 L14,44 C14,38.2 17,35.6 22,35.6 C27,35.6 30,38.2 30,44 L30,50 Z"/>
    <!-- right figure -->
    <circle cx="42" cy="31" r="6.4"/>
    <path d="M50,50 L50,44 C50,38.2 47,35.6 42,35.6 C37,35.6 34,38.2 34,44 L34,50 Z"/>
  </g>
</svg>
