<svg xmlns="http://www.w3.org/2000/svg" viewBox="0 0 1200 630" width="1200" height="630">
  <defs>
    <linearGradient id="bg" x1="0" y1="0" x2="1200" y2="630" gradientUnits="userSpaceOnUse">
      <stop offset="0" stop-color="#1e1b4b"/>
      <stop offset="1" stop-color="#312e81"/>
    </linearGradient>
    <linearGradient id="mark" x1="0" y1="0" x2="200" y2="200" gradientUnits="userSpaceOnUse">
      <stop offset="0" stop-color="#818cf8"/>
      <stop offset="1" stop-color="#4f46e5"/>
    </linearGradient>
  </defs>
  <rect width="1200" height="630" fill="url(#bg)"/>
  <circle cx="980" cy="120" r="320" fill="#4f46e5" opacity="0.12"/>
  <circle cx="180" cy="560" r="260" fill="#6366f1" opacity="0.10"/>

  <!-- Logo mark -->
  <g transform="translate(500,150)">
    <rect width="200" height="200" rx="44" fill="url(#mark)"/>
    <g fill="#ffffff" transform="scale(3.125)">
      <path transform="translate(24.8,1.4) scale(0.6)" d="M12,21 C12,21 3,14.6 3,8.6 C3,5.5 5.4,3.1 8.5,3.1 C10.3,3.1 11.5,4.1 12,5.1 C12.5,4.1 13.7,3.1 15.5,3.1 C18.6,3.1 21,5.5 21,8.6 C21,14.6 12,21 12,21 Z"/>
      <circle cx="22" cy="31" r="6.4"/>
      <path d="M14,50 L14,44 C14,38.2 17,35.6 22,35.6 C27,35.6 30,38.2 30,44 L30,50 Z"/>
      <circle cx="42" cy="31" r="6.4"/>
      <path d="M50,50 L50,44 C50,38.2 47,35.6 42,35.6 C37,35.6 34,38.2 34,44 L34,50 Z"/>
    </g>
  </g>

  <text x="600" y="440" text-anchor="middle" font-family="Arial, 'Segoe UI', sans-serif" font-size="92" font-weight="700" fill="#ffffff">שדכן<tspan fill="#a5b4fc">AI</tspan></text>
  <text x="600" y="500" text-anchor="middle" font-family="Arial, 'Segoe UI', sans-serif" font-size="34" font-weight="500" fill="#c7d2fe">מערכת שידוכים חכמה מבוססת בינה מלאכותית</text>
  <text x="600" y="575" text-anchor="middle" font-family="Arial, 'Segoe UI', sans-serif" font-size="26" font-weight="400" fill="#818cf8" letter-spacing="2">SHADCHAN-AI</text>
</svg>
